# xmcd
#
# Track frame offsets:
#	183
#	11595
#	25825
#	40448
#	53335
#	69955
#	82283
#	95163
#	108523
#	122995
#	135370
#	150683
#	164925
#	179815
#	195880
#	208815
#
# Disc length: 2915 seconds
#
# Revision: 1
# Processed by: cddbd v1.5.1PL0 Copyright (c) Steve Scherf et al.
# Submitted via: audiograbber 1.83.01
#
DISCID=e40b6110
DTITLE=Il dizionario della canzone italiana - Ballabili degli anni '40 e '50
DYEAR=1900
DGENRE=Dance Hall
TTITLE0=Carla Boni - Mambo italiano
TTITLE1=Claudio Villa - Qui sotto il cielo di Capri
TTITLE2=Emilio Livi e Trio Lescano - Tu che mi fai piangere
TTITLE3=Lidia Martorana - Che mele
TTITLE4=Nilla Pizzi e Luciano Benevene - Bongo bongo
TTITLE5=Tati Casoni - Ba-ba-dù
TTITLE6=Nilla Pizzi e Duo Fasano - La raspa
TTITLE7=Flo Sandon's - Tipitipitipso
TTITLE8=Dea Garbaccio - Si chiama boogie-woogie
TTITLE9=Nilla Pizzi e Gino Latilla - Colpa del bajon
TTITLE10=Pippo Starnazza - La quadriglia di famiglia
TTITLE11=Vittorio De Sica - Finestre
TTITLE12=Emilio Livi - Acquaiola campagnola
TTITLE13=Erminio Mcario e Wanda Osiris - Chi sei tu
TTITLE14=Luciana Dolliver - Passa la diligenza
TTITLE15=Enzo Di Mola  - Voglio fischiettare
EXTD=
EXTT0=
EXTT1=
EXTT2=
EXTT3=
EXTT4=
EXTT5=
EXTT6=
EXTT7=
EXTT8=
EXTT9=
EXTT10=
EXTT11=
EXTT12=
EXTT13=
EXTT14=
EXTT15=
PLAYORDER=
